<svg width="672" height="90" viewBox="0 0 672 90" fill="none" xmlns="http://www.w3.org/2000/svg">
<path d="M102.328 11.3906C102.328 14.4844 101.094 17.125 98.625 19.3125C96.1875 21.5 93.25 22.5938 89.8125 22.5938C86.375 22.5938 83.4375 21.5 81 19.3125C78.5625 17.125 77.3438 14.4844 77.3438 11.3906C77.3438 10.6719 77.4688 9.73438 77.7188 8.57812C76.3125 8.45312 75.4219 8.39062 75.0469 8.39062C70.2969 8.39062 67.9219 10.375 67.9219 14.3438C67.9219 16.375 69.3125 20.9219 72.0938 27.9844C74.9062 35.0469 76.3125 40.5781 76.3125 44.5781C76.3125 53.1406 71.5781 59.5625 62.1094 63.8438C55.0469 67 46.7812 68.5781 37.3125 68.5781C28.6562 68.5781 20.9844 67.375 14.2969 64.9688C4.89062 61.5938 0.1875 56.4062 0.1875 49.4062C0.1875 39.2188 8.85938 34.125 26.2031 34.125H44.0625L47.4844 41.625H33.5625C30.0625 41.625 27.0156 42.2344 24.4219 43.4531C21.0469 45.0469 19.3594 47.4062 19.3594 50.5312C19.3594 54.0625 21.6875 56.8281 26.3438 58.8281C29.9375 60.3594 33.7812 61.125 37.875 61.125C43.0625 61.125 47.3906 59.9844 50.8594 57.7031C54.8906 55.0781 56.9062 51.3125 56.9062 46.4062C56.9062 43.0312 55.625 38.1875 53.0625 31.875C50.5 25.5625 49.2188 20.6562 49.2188 17.1562C49.2188 5.75 58.9219 0.046875 78.3281 0.046875H89.9062C93.0938 0.046875 95.9375 1.125 98.4375 3.28125C101.031 5.5625 102.328 8.26562 102.328 11.3906ZM112.973 59.9531C112.973 62.0156 112.176 63.7812 110.582 65.25C108.988 66.7188 107.066 67.4531 104.816 67.4531C102.535 67.4531 100.598 66.7188 99.0038 65.25C97.4413 63.7812 96.66 62.0156 96.66 59.9531C96.66 57.8906 97.4413 56.125 99.0038 54.6562C100.598 53.1875 102.535 52.4531 104.816 52.4531C107.066 52.4531 108.988 53.1875 110.582 54.6562C112.176 56.125 112.973 57.8906 112.973 59.9531ZM273.808 34.125C272.214 39.125 268.402 41.625 262.371 41.625H234.527L225.714 66H208.933L217.746 41.625H203.355C187.605 60.625 172.214 70.125 157.183 70.125C152.808 70.125 149.121 69.3125 146.121 67.6875C142.339 65.625 140.449 62.5938 140.449 58.5938C140.449 55.1875 141.855 51.8594 144.667 48.6094C149.199 43.3906 156.058 39.5312 165.246 37.0312C172.433 35.0938 180.371 34.125 189.058 34.125H198.152L226.558 0.046875H249.152L237.058 34.125H273.808ZM230.121 7.82812L209.589 34.125H220.042L230.121 7.82812ZM191.824 41.625C180.105 41.625 171.886 43.3125 167.167 46.6875C163.261 49.5 161.308 52.4844 161.308 55.6406C161.308 58.3281 162.714 59.6719 165.527 59.6719C169.402 59.6719 174.246 57.4844 180.058 53.1094C185.152 49.3281 189.074 45.5 191.824 41.625ZM408.628 34.125C407.034 39.125 403.222 41.625 397.191 41.625H369.347L360.534 66H343.753L352.566 41.625H338.175C322.425 60.625 307.034 70.125 292.003 70.125C287.628 70.125 283.941 69.3125 280.941 67.6875C277.159 65.625 275.269 62.5938 275.269 58.5938C275.269 55.1875 276.675 51.8594 279.487 48.6094C284.019 43.3906 290.878 39.5312 300.066 37.0312C307.253 35.0938 315.191 34.125 323.878 34.125H332.972L361.378 0.046875H383.972L371.878 34.125H408.628ZM364.941 7.82812L344.409 34.125H354.862L364.941 7.82812ZM326.644 41.625C314.925 41.625 306.706 43.3125 301.987 46.6875C298.081 49.5 296.128 52.4844 296.128 55.6406C296.128 58.3281 297.534 59.6719 300.347 59.6719C304.222 59.6719 309.066 57.4844 314.878 53.1094C319.972 49.3281 323.894 45.5 326.644 41.625ZM443.038 58.5C441.194 63.5 437.741 66 432.679 66H421.241C418.522 73.375 415.663 78.8438 412.663 82.4062C408.476 87.3438 403.272 89.8125 397.054 89.8125C393.147 89.8125 390.132 88.6719 388.007 86.3906C386.163 84.3906 385.241 81.8125 385.241 78.6562C385.241 76.1562 385.772 73.7344 386.835 71.3906C387.929 69.0469 389.351 67.25 391.101 66H387.538C385.476 66 383.757 65.375 382.382 64.125C381.038 62.8438 380.366 61.25 380.366 59.3438C380.366 58.4688 380.522 57.5781 380.835 56.6719L388.991 34.125H406.007L397.241 58.5H406.757L415.382 34.125H432.304L423.679 58.5H443.038ZM403.804 67.2656C401.741 67.2656 399.819 68.4219 398.038 70.7344C396.288 73.0781 395.413 75.4062 395.413 77.7188C395.413 79.7812 396.319 81.4375 398.132 82.6875L403.804 67.2656ZM471.401 14.9062C471.401 18.0312 470.182 20.6875 467.745 22.875C465.339 25.0625 462.432 26.1562 459.026 26.1562C455.557 26.1562 452.604 25.0625 450.167 22.875C447.761 20.6875 446.557 18.0312 446.557 14.9062C446.557 11.8125 447.761 9.17188 450.167 6.98438C452.604 4.79687 455.557 3.70312 459.026 3.70312C462.432 3.70312 465.339 4.79687 467.745 6.98438C470.182 9.17188 471.401 11.8125 471.401 14.9062ZM474.776 58.5C473.964 61.25 472.276 63.2812 469.714 64.5938C467.87 65.5312 465.87 66 463.714 66H445.198C440.729 66 438.495 64.125 438.495 60.375C438.495 59.3125 438.714 58.1719 439.151 56.9531L447.307 34.125H464.323L455.651 58.5H474.776ZM507.217 58.5C506.436 61.25 504.639 63.2812 501.827 64.5938C499.858 65.5312 497.749 66 495.499 66H477.452C472.827 66 470.514 64.4219 470.514 61.2656C470.514 60.4531 470.686 59.5312 471.03 58.5L488.421 9.46875H505.014L487.53 58.5H507.217ZM563.565 58.5C562.065 63.5 558.237 66 552.081 66H534.315C529.253 66 526.721 64.375 526.721 61.125C523.315 65 519.128 66.9375 514.159 66.9375C510.503 66.9375 507.534 65.8125 505.253 63.5625C502.971 61.3125 501.831 58.375 501.831 54.75C501.831 48.2188 504.331 43.0625 509.331 39.2812C513.862 35.8438 519.471 34.125 526.159 34.125H552.924L544.112 58.5H563.565ZM533.331 41.625H522.971L519.69 52.5469C519.503 53.2344 519.409 53.8594 519.409 54.4219C519.409 57.1406 522.065 58.5 527.378 58.5L533.331 41.625ZM614.522 58.5C614.522 60.6875 613.319 62.5312 610.912 64.0312C608.787 65.3438 606.569 66 604.256 66H586.303C581.553 66 579.178 64.0312 579.178 60.0938C579.178 59.0938 579.381 58.0156 579.787 56.8594L585.084 41.625H575.1L569.897 55.0781C569.022 57.3594 567.131 58.5 564.225 58.5H559.256L565.397 41.625C563.459 41.1875 561.881 40.2188 560.662 38.7188C559.475 37.1875 558.881 35.4375 558.881 33.4688C558.881 29.875 560.553 27.0938 563.897 25.125C566.678 23.5 569.991 22.6875 573.834 22.6875H581.428L577.491 34.125H603.412L594.881 58.5H614.522ZM671.291 58.5C669.791 63.5 665.963 66 659.807 66H642.041C636.979 66 634.448 64.375 634.448 61.125C631.041 65 626.854 66.9375 621.885 66.9375C618.229 66.9375 615.26 65.8125 612.979 63.5625C610.698 61.3125 609.557 58.375 609.557 54.75C609.557 48.2188 612.057 43.0625 617.057 39.2812C621.588 35.8438 627.198 34.125 633.885 34.125H660.651L651.838 58.5H671.291ZM641.057 41.625H630.698L627.416 52.5469C627.229 53.2344 627.135 53.8594 627.135 54.4219C627.135 57.1406 629.791 58.5 635.104 58.5L641.057 41.625Z" fill="black"/>
</svg>
