<?xml version="1.0" encoding="utf-8"?>
<!-- Generator: Adobe Illustrator 26.0.0, SVG Export Plug-In . SVG Version: 6.00 Build 0)  -->
<svg version="1.1" id="Layer_1" xmlns="http://www.w3.org/2000/svg" xmlns:xlink="http://www.w3.org/1999/xlink" x="0px" y="0px"
	 viewBox="0 0 216 216" style="enable-background:new 0 0 216 216;" xml:space="preserve">
<style type="text/css">
	.st0{fill:#DDA04E;}
	.st1{fill:#0E2832;}
	.st2{font-family:'Furore';}
	.st3{font-size:18px;}
</style>
<path class="st0" d="M118.7,75.9H118V92l-10.2-4.3L97.9,92v-8.5l-7.6-7.6h-0.4v32.9l7.4,7.4h0.6v-16.2l10-4.6l10.1,4.6v8.6l0.1,0.1
	l7.6,7.6h0.4V83.3L118.7,75.9z"/>
<polyline class="st0" points="100.1,101.8 108.1,98.4 115.4,101.9 115.4,103.1 108.3,100.1 100.2,103.2 "/>
<polyline class="st0" points="100.2,104.2 108.2,100.9 115.5,104.3 115.5,105.5 108.3,102.5 100.3,105.6 "/>
<polyline class="st0" points="100.2,106.7 108.2,103.4 115.5,106.8 115.5,108.1 108.3,105.1 100.3,108.2 "/>
<text transform="matrix(1 0 0 1 60.0698 137.54)" class="st1 st2 st3">HINANSHO</text>
</svg>
