<svg width="256" height="55" viewBox="0 0 256 55" fill="none" xmlns="http://www.w3.org/2000/svg">
<g clip-path="url(#clip0_577_2)">
<rect width="55" height="55" fill="white"/>
<path d="M54.7959 41.0027C53.4612 35.7374 52.2203 30.4463 51.0159 25.15C49.9471 20.4548 48.8313 19.8018 44.1077 21.1077C36.433 23.2377 28.7792 25.5075 21.0211 27.3006C15.9742 28.4666 10.7344 28.8087 5.60924 29.6793C2.87723 30.1457 1.93354 31.5657 2.48098 34.048C3.84177 40.018 5.31727 45.9673 6.68327 51.927C7.23072 54.3109 8.66451 55.2178 11.0211 54.9587C11.798 54.8758 12.5853 54.8654 13.3621 54.8239C26.8129 54.0429 40.0281 50.9663 52.4289 45.729C54.6395 44.8065 55.3955 43.3503 54.7959 41.0027ZM41.4956 34.1776C39.895 40.4482 33.2005 45.3247 26.5164 45.3714C21.8241 45.4077 18.0284 43.2259 14.6238 40.2616C13.3256 39.1319 13.1275 37.7015 14.3319 36.3904C15.5363 35.0793 16.6781 35.9603 17.6843 36.8516C20.067 38.9712 22.726 40.5415 26.0263 40.7228C30.4476 40.9612 33.6854 38.9557 35.9325 35.2762C36.4636 34.3854 36.9204 33.453 37.2985 32.4881C37.8824 31.0423 39.0451 30.2027 40.3069 31.0526C41.0681 31.5864 41.7354 33.2603 41.4956 34.1776Z" fill="#FF5319"/>
<path d="M47.4446 16.0233C47.4295 16.2067 47.3999 16.3887 47.356 16.5674C47.3253 16.6969 47.2835 16.8235 47.2309 16.9457C47.2102 17.0067 47.184 17.0657 47.1527 17.1219C46.9845 17.4699 46.7447 17.7789 46.4488 18.0288C46.3915 18.0755 46.3341 18.1273 46.2716 18.1688L46.0995 18.2932C46.0369 18.3346 45.9744 18.3761 45.9066 18.4124C45.6043 18.5908 45.2846 18.7384 44.9525 18.8528C31.7607 23.4695 18.0726 26.5426 4.16519 28.01C1.3654 28.3106 0.31743 27.2275 0.0254594 24.0403C-0.203946 21.4906 0.906593 20.0914 3.50305 19.9567C16.7797 19.2683 29.8429 16.3473 42.137 11.3177L42.4499 11.1985L42.7575 11.0949C43.12 10.9726 43.4937 10.8858 43.8732 10.8358C44.034 10.8154 44.196 10.8051 44.3581 10.8047H44.4102H44.6292H44.7491H44.869C44.9396 10.813 45.0093 10.8269 45.0776 10.8462C45.1555 10.8614 45.2321 10.8822 45.307 10.9083L45.3904 10.9446L45.4478 10.9705C45.5048 10.9872 45.5592 11.0116 45.6094 11.0431C45.688 11.0792 45.7631 11.1226 45.8336 11.1726C45.9219 11.2238 46.0041 11.2846 46.0786 11.354L46.1881 11.4525C46.2424 11.5004 46.2929 11.5524 46.3393 11.608C46.4076 11.6846 46.4703 11.766 46.527 11.8515C46.5817 11.9254 46.6305 12.0033 46.673 12.0847C46.7004 12.1279 46.7248 12.1729 46.746 12.2195C46.7586 12.2325 46.7676 12.2486 46.7721 12.2661C46.813 12.3356 46.8479 12.4084 46.8764 12.4838C46.9795 12.7261 47.0648 12.9755 47.1318 13.23C47.1982 13.4823 47.2487 13.7385 47.283 13.997C47.283 14.054 47.283 14.111 47.283 14.168C47.283 14.225 47.283 14.2976 47.283 14.365L47.3143 14.7329C47.3143 14.8625 47.3143 14.992 47.3143 15.1268V15.277C47.3829 15.5208 47.4266 15.7708 47.4446 16.0233Z" fill="#FF5319"/>
<path d="M36.7145 0.616716C35.6012 0.114521 34.3753 -0.0898975 33.1581 0.0237249C31.9409 0.137347 30.7747 0.565068 29.7749 1.26451C25.7343 4.0215 23.7061 7.95488 23.3359 13.6762C23.7739 14.0907 24.7489 15.6714 25.4579 15.5625C30.5674 14.78 35.4267 13.1268 38.9407 9.11054C41.7458 5.90786 40.6821 2.23878 36.7145 0.616716ZM35.7238 7.40038C33.117 10.7793 29.4361 12.5827 25.0565 14.4121C25.6509 9.55622 27.9501 6.45718 31.704 4.41016C32.5622 4.0214 33.5216 3.91082 34.4465 4.09405C36.4955 4.45163 36.996 5.76794 35.7238 7.40038Z" fill="#FF5319"/>
<path d="M21.9035 13.4996C19.4895 9.64395 16.1684 7.13571 11.6428 6.20289C10.1586 5.84351 8.59868 5.95227 7.1795 6.51411C5.76032 7.07594 4.55231 8.06297 3.72311 9.33819C1.70538 12.2921 2.53959 15.7124 5.88161 17.0236C8.02447 17.8631 10.3811 18.1481 12.8107 18.7234C15.4697 18.143 18.1913 17.6869 20.8295 16.9251C22.6386 16.381 22.9306 15.1165 21.9035 13.4996ZM7.74292 13.9401C6.46033 13.199 6.35085 11.9242 7.4301 11.209C8.62405 10.4213 10.2195 9.74241 11.6011 9.82015C15.4854 10.0223 18.6136 11.8931 21.1058 15.1942C16.2726 16.7852 11.9087 16.3291 7.74292 13.9142V13.9401Z" fill="#FF5319"/>
</g>
<path d="M64.7341 20L75.5341 20.04C80.2941 20.04 84.0541 22.52 84.0541 27.72C84.0541 31.16 82.4141 33.64 79.7341 34.92L82.8541 40.16C83.4141 41.08 84.5741 43.24 85.8941 43.4C86.0541 43.44 86.2141 43.52 86.2141 43.72C86.2141 43.84 86.0941 44 85.8941 44H81.8541C78.7741 44 78.0941 42.92 77.1741 41.28L74.0541 36H72.3741V39.84C72.3741 42.16 72.8941 43.2 74.4541 43.4C74.6141 43.44 74.7741 43.52 74.7741 43.72C74.7341 43.84 74.6541 44 74.4541 44H64.7341C64.5341 44 64.4141 43.92 64.4141 43.72C64.4141 43.52 64.4941 43.44 64.7341 43.4C66.4141 43.2 66.7741 42.2 66.7741 39.84V24.2C66.7741 21.84 66.4141 20.84 64.7341 20.64C64.4941 20.6 64.4141 20.52 64.4141 20.32C64.4141 20.12 64.5341 20 64.7341 20ZM72.3741 20.6V35.4C76.0541 35.4 78.4941 31.8 78.4941 27.72C78.4941 23.68 76.2541 20.6 72.3741 20.6ZM93.0109 28.52C95.0909 28.52 97.4109 29.32 98.7309 31C100.131 32.76 99.9709 35.8 96.6909 36.2C94.7709 36.4 92.8109 36.64 90.8909 36.88C92.0109 42.16 97.8909 42.92 99.8509 39.48C99.9709 39.28 100.131 38.84 100.451 39C100.571 39.04 100.611 39.2 100.571 39.32C99.6109 43 96.5709 44.28 93.0909 44.28C89.7309 44.28 86.3709 42.28 85.3309 38.76C85.1709 38.24 85.0909 37.76 85.0109 37.2C84.6109 32.6 86.8109 28.52 93.0109 28.52ZM92.9709 29.12C90.7709 29.12 90.0509 33.6 90.7709 36.28C93.4109 35.96 95.5709 35.04 95.2909 32.48C95.0909 30.44 94.6109 29.12 92.9709 29.12ZM99.6872 28.52H108.527C108.727 28.52 108.967 28.56 108.967 28.84C108.967 29.04 108.807 29.12 108.607 29.16C107.167 29.6 107.847 31.32 108.367 32.68L111.207 38.84L113.167 33.76L112.687 32.68C112.247 31.76 111.087 29.12 110.167 29.12C110.007 29.12 109.807 29.08 109.807 28.84C109.807 28.64 109.967 28.52 110.167 28.52H113.047H118.007H119.007C119.207 28.52 119.447 28.56 119.447 28.84C119.447 29.04 119.287 29.12 119.087 29.16C117.647 29.6 118.327 31.32 118.847 32.68L121.687 38.84L124.167 32.36C124.607 31.2 125.207 29.12 123.487 29.12C123.367 29.12 123.207 29.04 123.207 28.84C123.207 28.72 123.327 28.52 123.487 28.52H128.447C128.647 28.52 128.807 28.64 128.807 28.84C128.807 29.04 128.687 29.12 128.447 29.16C126.687 29.16 125.687 30.04 124.647 32.76L120.367 44H117.687L113.527 34.52L109.887 44H107.207L102.247 32.68C101.767 31.76 100.607 29.12 99.6872 29.12C99.5272 29.12 99.3672 29.08 99.3672 28.84C99.3672 28.64 99.5272 28.52 99.6872 28.52ZM133.569 28.52C138.089 28.32 141.089 29.88 141.769 34.16L142.369 39.36C142.769 41.92 143.609 42.64 144.249 42.76C144.449 42.8 144.689 42.72 144.889 42.72C145.209 42.76 145.289 43.16 145.049 43.28C143.929 43.96 142.929 44.28 141.249 44.28C139.649 44.28 138.009 43.8 137.249 42.28C137.249 42.32 135.649 44.28 132.209 44.28C129.489 44.28 126.769 43.24 126.769 40.28C126.769 35.2 132.489 36.32 134.929 35.2C135.969 34.72 136.169 34.08 136.009 32.92C135.849 31.56 135.129 29.12 133.089 29.12C131.849 29.12 131.369 29.88 131.369 30.56C131.369 31.76 133.169 31.76 132.889 33.44C132.529 35.44 128.929 35.76 128.289 33.36C127.689 31.04 129.409 28.76 133.569 28.52ZM136.249 34.92C135.969 35.32 135.609 35.6 135.209 35.84C133.929 36.6 132.009 37.36 132.009 39.72C132.009 43.72 137.249 43.64 136.889 40.88L136.249 34.92ZM157.897 28.36C160.697 28.36 162.377 30.92 160.897 33.36C160.217 34.48 158.897 34.8 157.857 34.52C157.057 34.28 156.457 33.84 156.457 32.88C156.457 31.6 157.857 31.8 157.817 30.8C157.817 29.92 157.177 29.12 156.097 29.32C154.297 29.84 153.897 31.72 153.897 35.12V39.84C153.897 42.16 154.457 43.2 156.017 43.4C156.137 43.44 156.297 43.52 156.297 43.72C156.297 43.84 156.177 44 156.017 44H146.297C146.057 44 145.937 43.92 145.937 43.72C145.937 43.52 146.057 43.44 146.297 43.4C147.937 43.2 148.337 42.2 148.337 39.84V35.96C148.337 33.48 147.817 32.16 146.377 31.88C146.217 31.88 146.057 31.84 146.057 31.6C146.057 31.4 146.177 31.28 146.377 31.28C150.257 31.16 153.097 28.88 153.417 28.6C153.617 28.44 153.897 28.56 153.897 28.84V30.04C154.417 29.56 155.137 28.92 156.377 28.52C156.937 28.4 157.417 28.36 157.897 28.36ZM178.088 20.12C178.288 19.92 178.608 20.08 178.608 20.32V39.08C178.608 40.12 178.688 40.88 178.848 41.44C179.088 42.36 179.568 42.68 179.968 42.76C180.168 42.76 180.408 42.72 180.608 42.72C180.928 42.72 181.008 43.12 180.768 43.28C179.808 43.84 178.688 44.28 177.288 44.28C175.808 44.36 174.248 43.96 173.408 42.56C172.328 43.56 170.928 44.2 169.368 44.28H169.048H168.648C165.008 44.12 162.048 40.88 161.808 36.88C161.568 32.48 164.528 28.8 168.408 28.56C170.128 28.48 171.728 29.04 173.008 30.08V27.44C173.008 24.96 172.488 23.64 171.048 23.36C170.928 23.36 170.728 23.24 170.728 23.08C170.728 22.92 170.848 22.76 171.048 22.76C174.928 22.64 177.808 20.36 178.088 20.12ZM168.288 29.08C168.168 29.08 168.088 29.12 167.968 29.16C166.408 29.6 166.368 32.92 167.408 36.76C168.368 40.36 169.928 43.12 171.408 43.08C171.528 43.08 171.648 43.04 171.728 43.04C173.328 42.6 173.328 39.24 172.328 35.44C171.328 31.8 169.768 29.08 168.288 29.08ZM189.692 20.24C191.252 19.84 193.252 19.68 194.972 19.84C199.412 20.08 200.332 21.28 200.852 20.24C201.012 19.92 201.452 20 201.452 20.32V25.52C201.452 25.68 201.332 25.8 201.172 25.8C201.012 25.84 200.892 25.72 200.852 25.56C199.612 21.12 196.932 20.4 194.612 20.36C190.972 20.4 186.732 24.08 186.732 32.04C186.732 40 190.732 43.64 194.412 43.6C197.332 43.6 199.932 41.36 200.852 38C200.932 37.64 201.452 37.68 201.452 38.04V43.72C201.452 44 201.132 44.2 200.852 43.8C200.092 42.68 197.372 44.24 193.292 44.24C192.172 44.24 191.092 44.16 190.052 43.92C184.772 42.6 181.172 37.76 181.172 32.04C181.172 26.44 184.612 21.68 189.692 20.24ZM210.096 20.12C210.216 20 210.336 20 210.456 20.08C210.536 20.12 210.616 20.2 210.616 20.32V39.84C210.616 42.16 211.136 43.2 212.696 43.4C212.856 43.44 213.016 43.52 213.016 43.72C212.976 43.84 212.896 44 212.696 44H202.976C202.736 44 202.616 43.92 202.616 43.72C202.616 43.52 202.736 43.44 202.976 43.4C204.656 43.2 205.016 42.2 205.016 39.84V27.44C205.016 24.96 204.536 23.64 203.096 23.36C202.896 23.36 202.736 23.32 202.736 23.08C202.736 22.88 202.856 22.76 203.056 22.76C206.936 22.64 209.816 20.36 210.096 20.12ZM219.819 28.52C224.339 28.32 227.339 29.88 228.019 34.16L228.619 39.36C229.019 41.92 229.859 42.64 230.499 42.76C230.699 42.8 230.939 42.72 231.139 42.72C231.459 42.76 231.539 43.16 231.299 43.28C230.179 43.96 229.179 44.28 227.499 44.28C225.899 44.28 224.259 43.8 223.499 42.28C223.499 42.32 221.899 44.28 218.459 44.28C215.739 44.28 213.019 43.24 213.019 40.28C213.019 35.2 218.739 36.32 221.179 35.2C222.219 34.72 222.419 34.08 222.259 32.92C222.099 31.56 221.379 29.12 219.339 29.12C218.099 29.12 217.619 29.88 217.619 30.56C217.619 31.76 219.419 31.76 219.139 33.44C218.779 35.44 215.179 35.76 214.539 33.36C213.939 31.04 215.659 28.76 219.819 28.52ZM222.499 34.92C222.219 35.32 221.859 35.6 221.459 35.84C220.179 36.6 218.259 37.36 218.259 39.72C218.259 43.72 223.499 43.64 223.139 40.88L222.499 34.92ZM239.907 28.48C239.947 28.48 239.987 28.52 240.027 28.52C240.107 28.56 240.187 28.68 240.187 28.8V30.32C241.027 29.24 242.387 28.56 244.147 28.56C248.907 28.56 250.387 31.4 250.827 34.16L251.507 39.84C251.787 42.16 252.467 43.16 253.987 43.4C254.187 43.44 254.347 43.52 254.387 43.72C254.387 43.88 254.267 44 254.027 44H244.387C244.187 44 244.027 43.96 244.027 43.72C244.027 43.52 244.187 43.44 244.347 43.4C245.947 43.16 246.187 42.16 245.947 39.84L245.267 33.6C245.027 31.64 244.267 29.36 242.267 29.64C240.427 29.92 240.187 31.84 240.187 35.32V39.84C240.187 42.16 240.707 43.2 242.267 43.4C242.427 43.44 242.587 43.52 242.587 43.72C242.547 43.84 242.467 44 242.267 44H232.547C232.347 44 232.227 43.92 232.227 43.72C232.227 43.52 232.307 43.44 232.547 43.4C234.227 43.2 234.587 42.2 234.587 39.84V35.96C234.587 33.56 234.387 32.32 232.667 31.84C232.467 31.8 232.307 31.76 232.307 31.52C232.307 31.36 232.427 31.24 232.627 31.24C236.507 31.12 239.387 28.8 239.667 28.56C239.747 28.52 239.827 28.48 239.907 28.48Z" fill="#363636"/>
<defs>
<clipPath id="clip0_577_2">
<rect width="55" height="55" fill="white"/>
</clipPath>
</defs>
</svg>
